<?xml version="1.0" encoding="UTF-8"?>
<svg id="Capa_1" data-name="Capa 1" xmlns="http://www.w3.org/2000/svg" viewBox="0 0 800 800">
  <defs>
    <style>
      .cls-1 {
        fill: #fff;
      }
    </style>
  </defs>
  <path class="cls-1" d="m400,0C179.34,0,0,179.34,0,400s179.5,400,400,400,400-179.5,400-400S620.66,0,400,0Zm0,743.98c-189.63,0-343.98-154.35-343.98-343.98S210.37,56.02,400,56.02s343.98,154.35,343.98,343.98-154.35,343.98-343.98,343.98Z"/>
  <path class="cls-1" d="m613.96,376.48l-287.14-184.24c-8.66-5.55-19.6-5.88-28.58-.98s-14.54,14.37-14.54,24.5v368.31c0,10.29,5.55,19.6,14.54,24.5,4.25,2.29,8.82,3.43,13.39,3.43,5.23,0,10.45-1.47,15.19-4.41l287.14-184.08c8-5.23,12.9-14.05,12.9-23.52-.16-9.47-4.9-18.46-12.9-23.52Zm-274.4,156.47v-265.9l207.27,132.95-207.27,132.95Z"/>
</svg>